<?xml version="1.0" encoding="UTF-8" standalone="no"?>
<!-- Created with Inkscape (http://www.inkscape.org/) -->

<svg
   xmlns:dc="http://purl.org/dc/elements/1.1/"
   xmlns:cc="http://creativecommons.org/ns#"
   xmlns:rdf="http://www.w3.org/1999/02/22-rdf-syntax-ns#"
   xmlns:svg="http://www.w3.org/2000/svg"
   xmlns="http://www.w3.org/2000/svg"
   xmlns:sodipodi="http://sodipodi.sourceforge.net/DTD/sodipodi-0.dtd"
   xmlns:inkscape="http://www.inkscape.org/namespaces/inkscape"
   width="199.40085"
   height="170.86578"
   id="svg2"
   version="1.1"
   inkscape:version="0.48.1 r9760"
   sodipodi:docname="New document 1">
  <defs
     id="defs4">
    <filter
       inkscape:collect="always"
       id="filter3843"
       color-interpolation-filters="sRGB">
      <feGaussianBlur
         inkscape:collect="always"
         stdDeviation="9.4132813"
         id="feGaussianBlur3845" />
    </filter>
  </defs>
  <sodipodi:namedview
     id="base"
     pagecolor="#ffffff"
     bordercolor="#666666"
     borderopacity="1.0"
     inkscape:pageopacity="0.0"
     inkscape:pageshadow="2"
     inkscape:zoom="0.27745655"
     inkscape:cx="350.90069"
     inkscape:cy="-324.06827"
     inkscape:document-units="px"
     inkscape:current-layer="layer1"
     showgrid="false"
     fit-margin-top="0"
     fit-margin-left="0"
     fit-margin-right="0"
     fit-margin-bottom="0"
     inkscape:window-width="1280"
     inkscape:window-height="727"
     inkscape:window-x="0"
     inkscape:window-y="24"
     inkscape:window-maximized="1" />
  <metadata
     id="metadata7">
    <rdf:RDF>
      <cc:Work
         rdf:about="">
        <dc:format>image/svg+xml</dc:format>
        <dc:type
           rdf:resource="http://purl.org/dc/dcmitype/StillImage" />
        <dc:title></dc:title>
      </cc:Work>
    </rdf:RDF>
  </metadata>
  <g
     inkscape:label="Layer 1"
     inkscape:groupmode="layer"
     id="layer1"
     transform="translate(-28.014618,-37.428122)">
    <g
       id="g3847"
       transform="matrix(0.43900103,0,0,0.43900103,-13.530049,-68.375488)">
      <g
         transform="translate(8.9098088,-1.2743679)"
         id="g3798">
        <path
           transform="translate(-109.58686,12.742657)"
           d="m 355.52016,320.93362 c 0,38.00291 -30.80744,68.81036 -68.81035,68.81036 -38.00291,0 -68.81036,-30.80745 -68.81036,-68.81036 0,-38.00291 30.80745,-68.81035 68.81036,-68.81035 38.00291,0 68.81035,30.80744 68.81035,68.81035 z"
           sodipodi:ry="68.810356"
           sodipodi:rx="68.810356"
           sodipodi:cy="320.93362"
           sodipodi:cx="286.70981"
           id="path3755"
           style="fill:#000000;fill-opacity:1;fill-rule:evenodd;stroke:none"
           sodipodi:type="arc" />
        <path
           sodipodi:type="arc"
           style="fill:#000000;fill-opacity:1;fill-rule:evenodd;stroke:none"
           id="path3757"
           sodipodi:cx="286.70981"
           sodipodi:cy="320.93362"
           sodipodi:rx="68.810356"
           sodipodi:ry="68.810356"
           d="m 355.52016,320.93362 c 0,38.00291 -30.80744,68.81036 -68.81035,68.81036 -38.00291,0 -68.81036,-30.80745 -68.81036,-68.81036 0,-38.00291 30.80745,-68.81035 68.81036,-68.81035 38.00291,0 68.81035,30.80744 68.81035,68.81035 z"
           transform="translate(33.130907,12.742657)" />
        <rect
           style="fill:#000000;fill-opacity:1;fill-rule:evenodd;stroke:none"
           id="rect3759"
           width="34.405178"
           height="58.616226"
           x="229.36783"
           y="348.96744" />
        <rect
           y="354.91553"
           x="-112.65632"
           height="94.29567"
           width="34.405178"
           id="rect3761"
           style="fill:#000000;fill-opacity:1;fill-rule:evenodd;stroke:none"
           transform="matrix(0.7061882,-0.70802417,0.70802417,0.7061882,0,0)"
           inkscape:transform-center-x="68.810353"
           inkscape:transform-center-y="19.113987" />
        <rect
           inkscape:transform-center-y="19.11398"
           inkscape:transform-center-x="-68.810346"
           transform="matrix(-0.7061882,-0.70802417,-0.70802417,0.7061882,0,0)"
           style="fill:#000000;fill-opacity:1;fill-rule:evenodd;stroke:none"
           id="rect3763"
           width="34.405178"
           height="94.29567"
           x="-462.70627"
           y="3.9555061" />
        <rect
           style="fill:#000000;fill-opacity:1;fill-rule:evenodd;stroke:none"
           id="rect3765"
           width="265.0473"
           height="164.38029"
           x="115.95819"
           y="410.13223"
           ry="20.388252" />
        <rect
           style="fill:#000000;fill-opacity:1;fill-rule:evenodd;stroke:none"
           id="rect3767"
           width="70.084618"
           height="82.827278"
           x="384.82828"
           y="450.90875" />
        <rect
           y="434.98041"
           x="458.73569"
           height="114.68392"
           width="28.033846"
           id="rect3772"
           style="fill:#000000;fill-opacity:1;fill-rule:evenodd;stroke:none" />
        <rect
           style="fill:#000000;fill-opacity:1;fill-rule:evenodd;stroke:none"
           id="rect3774"
           width="28.033846"
           height="151.63763"
           x="489.31805"
           y="416.50357" />
        <rect
           y="577.06104"
           x="159.28323"
           height="31.856646"
           width="180.94574"
           id="rect3776"
           style="fill:#000000;fill-opacity:1;fill-rule:evenodd;stroke:none" />
      </g>
      <path
         inkscape:connector-curvature="0"
         id="path3812"
         d="m 186.03893,263.60181 c -38.00291,0 -68.8125,30.80959 -68.8125,68.8125 0,38.00291 30.80959,68.8125 68.8125,68.8125 18.49936,0 35.29065,-7.31073 47.65625,-19.1875 l 4.59375,4.59375 0,19.6875 34.40625,0 0,-17.15625 7.78125,-7.75 c 12.42279,12.24235 29.46197,19.8125 48.28125,19.8125 38.00291,0 68.8125,-30.80959 68.8125,-68.8125 0,-38.00291 -30.80959,-68.8125 -68.8125,-68.8125 -38.00291,0 -68.8125,30.80959 -68.8125,68.8125 0,5.26016 0.60091,10.35941 1.71875,15.28125 l -8.53125,0 c 1.11784,-4.92184 1.71875,-10.02109 1.71875,-15.28125 0,-38.00291 -30.80959,-68.8125 -68.8125,-68.8125 z m -40.78125,145.25 c -11.29509,0 -20.375,9.11116 -20.375,20.40625 l 0,123.59375 c 0,11.29509 9.07991,20.375 20.375,20.375 l 224.28125,0 c 11.29509,0 20.375,-9.07991 20.375,-20.375 l 0,-123.59375 c 0,-11.29509 -9.07991,-20.40625 -20.375,-20.40625 l -224.28125,0 z m 352.96875,6.375 0,151.625 28.03125,0 0,-151.625 -28.03125,0 z m -30.5625,18.46875 0,114.6875 28.03125,0 0,-114.6875 -28.03125,0 z m -73.90625,15.9375 0,82.84375 70.0625,0 0,-82.84375 -70.0625,0 z m -225.5625,126.15625 0,31.84375 180.96875,0 0,-31.84375 -180.96875,0 z"
         style="opacity:0.7;fill:#000000;fill-opacity:1;fill-rule:evenodd;stroke:none;filter:url(#filter3843)" />
    </g>
  </g>
</svg>
